<?xml version="1.0" encoding="iso-8859-1"?>
<!-- Uploaded to: SVG Repo, www.svgrepo.com, Generator: SVG Repo Mixer Tools -->
<svg fill="#820001" height="800px" width="800px" version="1.1" id="Layer_1" xmlns="http://www.w3.org/2000/svg" xmlns:xlink="http://www.w3.org/1999/xlink" 
	 viewBox="0 0 512 512" xml:space="preserve">
<g>
	<g>
		<path d="M495.536,41.666c-3.069-7.808-7.566-14.802-13.359-20.788c-10.282-10.622-23.899-17.277-38.344-18.736
			C379.712-4.342,310.436,19.491,255.999,66.23C201.561,19.489,132.289-4.34,68.166,2.142c-14.445,1.459-28.062,8.114-38.344,18.736
			c-5.794,5.987-10.289,12.98-13.359,20.791c-29.146,74.15-19.184,164.71,26.646,242.246c23.76,40.198,55.922,74.499,93.008,99.193
			c31.072,20.69,64.989,34.282,99.04,39.853v2.864c0,36.261,21.492,69.021,54.755,83.46c2.534,1.101,5.174,1.622,7.771,1.622
			c7.549,0,14.739-4.4,17.938-11.766c4.298-9.9-0.245-21.411-10.145-25.708c-18.973-8.237-31.233-26.923-31.233-47.607V423.4
			c34.924-5.292,69.782-19.072,101.645-40.29c37.086-24.695,69.246-58.995,93.008-99.193
			C514.722,206.379,524.682,115.819,495.536,41.666z M435.248,264.028c-40.913,69.212-108.9,115.853-177.709,122.028
			c-1.713,0.048-4.194-0.132-4.478-0.147c-68.33-6.677-135.673-53.139-176.305-121.883c-39.75-67.252-48.69-145.03-23.918-208.058
			c1.173-2.985,2.878-5.645,5.069-7.907c3.873-4.001,8.913-6.499,14.191-7.033c57.041-5.76,119.548,17.697,167.215,62.761
			c4.534,4.286,10.461,6.647,16.688,6.647s12.153-2.361,16.689-6.648c47.667-45.064,110.174-68.523,167.214-62.759
			c5.278,0.534,10.317,3.032,14.191,7.033c2.191,2.263,3.896,4.923,5.069,7.906C483.938,118.997,474.997,196.777,435.248,264.028z"
			/>
	</g>
</g>
</svg>