<svg xmlns="http://www.w3.org/2000/svg" height="1200" width="1600" version="1.1" xmlns:xlink="http://www.w3.org/1999/xlink" xmlns:svgjs="http://svgjs.com/svgjs"><rect fill="#f3ebe9" width="1600" height="1200"></rect><g><path d="M1175.36 286.73H788.47C767.75 286.73 750.89 303.5 750.89 324.31V572.78C750.89 593.51 767.67 610.37 788.47 610.37H1175.44C1196.17 610.37 1213.03 593.59 1213.03 572.78V324.31C1212.95 303.5 1196.09 286.73 1175.36 286.73Z" fill="#3c2c5b" opacity="1" stroke-width="4" stroke="none"></path><path d="M796.37 345.78C803.86 345.78 809.94 339.7 809.94 332.21 809.94 324.72 803.86 318.64 796.37 318.64 788.87 318.64 782.8 324.72 782.8 332.21 782.8 339.7 788.87 345.78 796.37 345.78Z" fill="#ffffff" opacity="1" stroke-width="4" stroke="none"></path><path d="M836.92 345.78C844.41 345.78 850.49 339.7 850.49 332.21 850.49 324.72 844.41 318.64 836.92 318.64 829.42 318.64 823.35 324.72 823.35 332.21 823.35 339.7 829.42 345.78 836.92 345.78Z" fill="#ffffff" opacity="1" stroke-width="4" stroke="none"></path><path d="M877.46 345.78C884.96 345.78 891.04 339.7 891.04 332.21 891.04 324.72 884.96 318.64 877.46 318.64 869.97 318.64 863.89 324.72 863.89 332.21 863.89 339.7 869.97 345.78 877.46 345.78Z" fill="#ffffff" opacity="1" stroke-width="4" stroke="none"></path></g><g><path d="M911.68 377.22H1049.52C1056.59 377.22 1062.37 383 1062.37 390.07V548.08C1062.37 555.15 1056.59 560.93 1049.52 560.93H911.68C904.61 560.93 898.83 555.15 898.83 548.08V390.07C898.83 382.94 904.61 377.22 911.68 377.22Z" fill="#61ccff" opacity="1" stroke-width="4" stroke="none"></path><path d="M928.17 417.81L933.83 423.47 942.99 414.37" stroke="#ffc930" stroke-width="4" stroke-linecap="round" stroke-linejoin="round" opacity="1" fill="none"></path><path d="M939.19 472.99C942.04 471.02 942.74 467.11 940.78 464.27 938.8 461.41 934.9 460.7 932.05 462.68 929.19 464.65 928.49 468.56 930.46 471.41 932.43 474.25 936.34 474.97 939.19 472.99Z" stroke="#ffc930" stroke-width="4" stroke-linecap="round" stroke-linejoin="round" opacity="1" fill="none"></path><path d="M939.18 521.83C942.03 519.85 942.74 515.95 940.77 513.1 938.8 510.25 934.89 509.54 932.04 511.51 929.19 513.48 928.48 517.39 930.46 520.24 932.43 523.09 936.34 523.8 939.18 521.83Z" stroke="#ffc930" stroke-width="4" stroke-linecap="round" stroke-linejoin="round" opacity="1" fill="none"></path><path d="M960.77 420.09H1017.96" stroke="#cecece" stroke-width="4" stroke-linecap="round" stroke-linejoin="round" opacity="1" fill="none"></path><path d="M960.77 467.88H1017.96" stroke="#cecece" stroke-width="4" stroke-linecap="round" stroke-linejoin="round" opacity="1" fill="none"></path><path d="M960.77 516.28H1017.96" stroke="#cecece" stroke-width="4" stroke-linecap="round" stroke-linejoin="round" opacity="1" fill="none"></path></g><g><path d="M326.25 608.07H264.82V762.34H326.25V608.07Z" fill="#ffffff" opacity="1" stroke-width="4" stroke="none"></path><path d="M264.82 608.07H276.97L299.36 762.34H264.82V608.07Z" fill="#222222" opacity="0.3" stroke-width="4" stroke="none"></path><path d="M593.82 638.11H550.14V762.34H593.82V638.11Z" fill="#cecece" opacity="1" stroke-width="4" stroke="none"></path><path d="M550.14 638.11H555.05L571.98 762.34H550.14V638.11Z" fill="#222222" opacity="0.3" stroke-width="4" stroke="none"></path><path d="M516.01 608.07H475.06V762.34H516.01V608.07Z" fill="#cecece" opacity="1" stroke-width="4" stroke="none"></path><path d="M659.35 608.07H593.82V762.34H659.35V608.07Z" fill="#ffffff" opacity="1" stroke-width="4" stroke="none"></path><path d="M694.16 608.07H659.35V762.34H694.16V608.07Z" fill="#cecece" opacity="1" stroke-width="4" stroke="none"></path><path d="M659.35 608.07H664.95L679.56 762.34H659.35V608.07Z" fill="#020202" opacity="0.3" stroke-width="4" stroke="none"></path><path d="M728.98 608.07H694.16V762.34H728.98V608.07Z" fill="#ffffff" opacity="1" stroke-width="4" stroke="none"></path><path d="M437.38 607.72L360.24 741.31 398.07 763.16 475.21 629.56 437.38 607.72Z" fill="#cecece" opacity="1" stroke-width="4" stroke="none"></path><path d="M468.23 625.27L475.19 629.37 398.06 762.88 360.24 741.04 368.44 726.98 468.23 625.27Z" fill="#222222" opacity="0.3" stroke-width="4" stroke="none"></path><path d="M360.38 584.87H326.25V762.34H360.38V584.87Z" fill="#cecece" opacity="1" stroke-width="4" stroke="none"></path><path d="M550.14 584.87H516.01V762.34H550.14V584.87Z" fill="#ffffff" opacity="1" stroke-width="4" stroke="none"></path><path d="M308.5 857.63H264.82V1011.89H308.5V857.63Z" fill="#ffffff" opacity="1" stroke-width="4" stroke="none"></path><path d="M264.82 857.63H279.56L303.73 1011.89H264.82V857.63Z" fill="#222222" opacity="0.3" stroke-width="4" stroke="none"></path><path d="M352.19 857.63H308.5V1011.89H352.19V857.63Z" fill="#cecece" opacity="1" stroke-width="4" stroke="none"></path><path d="M386.32 828.96H352.19V1011.89H386.32V828.96Z" fill="#ffffff" opacity="1" stroke-width="4" stroke="none"></path><path d="M468.23 828.96H386.32V1011.89H468.23V828.96Z" fill="#cecece" opacity="1" stroke-width="4" stroke="none"></path><path d="M386.32 828.96H393.83L413.9 1011.89H386.32V828.96Z" fill="#020202" opacity="0.3" stroke-width="4" stroke="none"></path><path d="M509.18 883.56H468.23V1011.89H509.18V883.56Z" fill="#ffffff" opacity="1" stroke-width="4" stroke="none"></path><path d="M468.23 883.56H478.33L496.9 1011.89H468.23V883.56Z" fill="#1a1a1a" opacity="0.3" stroke-width="4" stroke="none"></path><path d="M619.76 857.63H578.81V1011.89H619.76V857.63Z" fill="#ffffff" opacity="1" stroke-width="4" stroke="none"></path><path d="M660.72 857.63H619.76V1011.89H660.72V857.63Z" fill="#cecece" opacity="1" stroke-width="4" stroke="none"></path><path d="M578.81 857.63H509.18V1011.89H578.81V857.63Z" fill="#ffffff" opacity="1" stroke-width="4" stroke="none"></path><path d="M728.98 857.63H660.72V1011.89H728.98V857.63Z" fill="#cecece" opacity="1" stroke-width="4" stroke="none"></path><path d="M264.82 762.34H728.98" stroke="#222222" stroke-width="4" stroke-linecap="round" stroke-linejoin="round" opacity="1" fill="none"></path><path d="M264.82 557.56V1009.84H728.98V557.56" stroke="#222222" stroke-width="4" stroke-linecap="round" stroke-linejoin="round" opacity="1" fill="none"></path><path d="M660.72 857.63H666.59L690.89 1011.89H660.72V857.63Z" fill="#020202" opacity="0.3" stroke-width="4" stroke="none"></path></g><g><path d="M579.07 696.66L577.09 684.64C582.52 686.29 588.12 687.28 593.72 687.11 609.03 687.11 622.03 681.85 628.29 673.12 638.66 658.97 638.99 642.5 629.27 612.38 630.26 611.06 637.67 601.68 636.19 595.59 635.36 592.13 630.26 589.66 621.21 588.35L620.39 585.38C615.61 571.39 611.66 559.21 606.56 549 599.15 533.86 580.71 542.26 563.43 535.67 552.24 531.23 553.88 530.73 541.87 530.73 518.82 530.73 503.84 534.02 488.53 547.52 464.33 569.42 460.38 594.77 464.66 617.15L464.83 618.14C467.13 631.97 474.04 671.31 479.31 696.99V697.81L574.29 701.44 579.07 696.66Z" fill="#c65a42" opacity="1" stroke-width="4" stroke="none"></path><path d="M579.07 696.66L577.09 684.64 576.1 684.15C576.1 684.15 572.81 682.5 567.22 679.71 565.24 678.72 561.95 677.9 560.63 679.54 559.64 680.53 559.64 683 559.81 684.32L561.78 697.81 579.07 696.66Z" fill="#222020" opacity="0.3" stroke-width="4" stroke="none"></path><path d="M851.67 816.5C858.91 801.68 863.52 790.98 864.01 789.5 865.99 789.01 884.09 784.73 899.4 761.85 900.23 763.49 903.52 768.76 909.28 768.76 913.39 768.76 917.84 766.29 922.61 761.52 934.3 749.83 935.95 741.44 935.12 736.5 934.63 733.04 932.49 729.91 929.36 728.27 931.5 722.83 931.67 717.9 929.86 713.95 928.37 710.82 925.91 708.18 922.78 706.87 928.37 695.18 919.98 687.28 918 685.63 920.97 683.99 923.93 682.5 926.56 681.02 943.02 672.3 953.89 666.54 953.89 659.13 953.89 654.19 949.44 651.56 941.21 651.56 929.69 651.56 911.25 656.66 891.83 665.22 871.25 674.11 852.16 685.8 834.87 700.12 819.73 712.96 800.8 731.23 778.41 754.77L778.08 755.43 850.51 816.99 851.67 816.5Z" fill="#c65a42" opacity="1" stroke-width="4" stroke="none"></path><path d="M450.51 985.23L613.14 984.9 613.97 981.93 632.9 893.54C637.83 897.49 685.9 934.53 724.58 934.53 725.74 934.53 726.89 934.53 728.04 934.36 786.97 930.9 830.76 858.97 851.67 816.5L778.41 754.77 778.25 754.93C751.75 782.75 729.19 808.6 726.56 811.73 663.02 728.43 611.17 716.09 585.98 716.09 585.32 716.09 584.66 716.09 584.17 716.09H583.18C583.02 716.09 582.85 716.09 582.69 716.09L579.07 696.66H479.15V697.48C479.48 699.46 479.81 701.27 480.14 702.92 480.3 704.07 480.63 705.06 480.79 706.21 481.12 707.53 481.45 708.84 481.62 709.83V710.16C477.83 710.65 444.58 716.25 423.18 739.95 413.63 750.33 392.4 773.04 379.23 806.79 372.48 823.74 368.03 840.37 363.26 856.5 362.6 858.48 364.41 865.55 363.92 867.36 363.59 868.52 366.22 869.67 365.89 870.82 361.61 885.97 358.49 900.12 356.51 912.63 351.9 942.59 354.37 968.11 363.92 988.35 364.58 989.84 365.4 991.32 366.39 992.8 385.65 1022.43 429.6 1020.45 447.54 990 448.53 988.35 449.52 986.71 450.51 985.23Z" fill="#ffa0dc" opacity="1" stroke-width="4" stroke="none"></path><path d="M450.51 985.23L433.06 894.03 430.26 894.2C417.75 894.2 414.95 920.2 411.99 947.86 411 957.08 410.01 966.63 408.53 975.19 403.59 1004.32 392.4 1011.89 392.23 1012.06 392.23 1012.06 429.44 1024.57 450.51 985.23Z" fill="#595457" opacity="0.3" stroke-width="4" stroke="none"></path><path d="M239.47 752.63C254.29 752.63 267.95 758.23 278.16 767.44 279.97 751.81 285.4 737.32 294.29 725.63 309.27 705.88 333.47 694.69 364.08 693.2 359.31 679.87 358.98 665.22 363.1 651.72 367.71 636.41 377.58 624.89 390.75 619.13 398.82 615.84 407.54 614.03 416.27 614.19 426.64 614.36 436.84 616.17 446.55 619.62V619.46C446.23 598.72 445.07 550.32 475.86 527.93 492.32 515.59 513.72 508.67 536.1 508.67 548.29 508.67 560.47 510.81 571.82 515.26 586.48 520.86 598.49 532.87 606.56 549L605.73 549.83C598.49 557.4 588.78 560.86 578.24 560.86 574.46 560.86 570.51 560.36 566.72 559.37 575.12 575.67 571.33 600.69 558.82 611.39L558.33 611.89 557.83 611.39C557.67 611.39 539.73 599.05 524.58 599.05 515.53 599.05 509.44 603.16 506.14 611.39 503.68 617.15 503.68 623.74 506.31 629.34 513.55 646.62 538.08 659.29 538.08 659.29 538.08 659.29 543.35 719.71 518.33 752.14 503.68 771.4 482.44 781.11 455.11 781.11 440.46 781.11 423.67 778.14 405.07 772.05 402.6 777.16 383.84 812.55 366.22 869.83L365.89 870.82C365.89 870.82 307.95 854.2 292.97 832.8 284.25 853.7 263.51 868.52 239.47 868.52 207.54 868.52 181.53 842.51 181.53 810.57 181.53 778.64 207.54 752.63 239.47 752.63Z" fill="#231f20" opacity="1" stroke-width="4" stroke="none"></path><path d="M412.32 947.2L440.96 936.5" stroke="#595457" stroke-width="4" stroke-linecap="round" stroke-linejoin="round" opacity="1" fill="none"></path><path d="M632.9 893.54L597.34 863.25" stroke="#595457" stroke-width="4" stroke-linecap="round" stroke-linejoin="round" opacity="1" fill="none"></path><path d="M726.56 811.73L733.31 848.43" stroke="#595457" stroke-width="4" stroke-linecap="round" stroke-linejoin="round" opacity="1" fill="none"></path><path d="M577.09 684.64C565.9 679.38 557.17 673.95 557.17 673.95" stroke="#222020" stroke-width="4" stroke-linecap="round" stroke-linejoin="round" opacity="1" fill="none"></path><path d="M619.73 629.5C613.14 629.66 606.56 627.2 601.62 622.92" stroke="#222020" stroke-width="4" stroke-linecap="round" stroke-linejoin="round" opacity="1" fill="none"></path><path d="M548.29 633.62L533.47 626.21" stroke="#222020" stroke-width="4" stroke-linecap="round" stroke-linejoin="round" opacity="1" fill="none"></path><path d="M600.8 593.29C598.52 593.29 596.68 591.44 596.68 589.17 596.68 586.9 598.52 585.05 600.8 585.05 603.07 585.05 604.91 586.9 604.91 589.17 604.91 591.44 603.07 593.29 600.8 593.29Z" fill="#231f20" opacity="1" stroke-width="4" stroke="none"></path><path d="M929.36 728.27C918.66 728.43 907.8 730.74 897.92 734.85" stroke="#222020" stroke-width="4" stroke-linecap="round" stroke-linejoin="round" opacity="1" fill="none"></path><path d="M922.78 706.87C903.02 708.51 891.34 713.45 891.34 713.45" stroke="#222020" stroke-width="4" stroke-linecap="round" stroke-linejoin="round" opacity="1" fill="none"></path><path d="M918 685.63C903.19 683.99 884.75 692.05 884.75 692.05" stroke="#222020" stroke-width="4" stroke-linecap="round" stroke-linejoin="round" opacity="1" fill="none"></path><path d="M778.41 754.77L851.67 816.5" stroke="#595457" stroke-width="4" stroke-linecap="round" stroke-linejoin="round" opacity="1" fill="none"></path><path d="M632.9 893.54L609.03 873.29C607.71 872.14 600.14 870.99 597.67 874.77 596.19 876.91 595.86 879.55 596.68 881.85L620.55 951.81 632.9 893.54Z" fill="#595457" opacity="0.3" stroke-width="4" stroke="none"></path><path d="M613.14 984.9L450.51 985.23 427.13 863.25" stroke="#595457" stroke-width="4" stroke-linecap="round" stroke-linejoin="round" opacity="1" fill="none"></path></g><g><path d="M1232.4 921.76C1249.75 921.76 1266.12 907.63 1268.9 890.27L1303.97 669.34C1304.7 665.41 1304.56 661.36 1303.56 657.49 1302.56 653.61 1300.71 650.01 1298.16 646.93 1295.59 643.99 1292.41 641.65 1288.84 640.08 1285.26 638.51 1281.39 637.75 1277.49 637.84H942.54C925.2 637.84 908.83 651.96 906.05 669.32L870.98 890.26C870.15 894.14 870.21 898.16 871.17 902.01 872.12 905.87 873.95 909.45 876.51 912.49 879.06 915.53 882.28 917.95 885.91 919.55 889.54 921.16 893.49 921.91 897.46 921.76H1232.4Z" fill="#9e76dd" opacity="1" stroke-width="4" stroke="none"></path><path d="M1123.75 921.58L1139 826.36 1033.06 826.3 1017.8 921.58H1123.75Z" fill="#292929" opacity="0.15" stroke-width="4" stroke="none"></path><path d="M1179.38 976.34L1139.17 826.17 1033.24 826.13 1073.45 976.34H1179.38Z" fill="#9e76dd" opacity="1" stroke-width="4" stroke="none"></path><path d="M1098.76 769.22C1109.9 769.22 1120.85 760.62 1126 747.82 1129.11 740.42 1129.67 732.21 1127.59 724.46 1126.77 721.13 1125.18 718.03 1122.96 715.41 1120.75 712.8 1117.95 710.72 1114.8 709.36 1112.42 708.41 1109.88 707.92 1107.32 707.93 1096.18 707.93 1085.24 716.53 1080.08 729.33 1073.6 745.43 1078.62 762.68 1091.28 767.78 1093.66 768.73 1096.2 769.22 1098.76 769.22Z" fill="#f7f7f7" opacity="1" stroke-width="4" stroke="none"></path><path d="M1164 920.67L1139.12 827.91H1033.23L1058.11 920.67" stroke="#292929" stroke-width="4" stroke-linecap="round" stroke-linejoin="round" opacity="1" fill="none"></path><path d="M1048.61 976.34L1048.66 972.84C1048.65 967.37 1046.48 962.13 1042.62 958.27 1038.75 954.41 1033.52 952.24 1028.05 952.23H689.14C683.67 952.24 678.44 954.41 674.57 958.27 670.71 962.13 668.54 967.37 668.53 972.84V976.34H1048.61Z" fill="#9e76dd" opacity="1" stroke-width="4" stroke="none"></path><path d="M810.23 976.34L810.28 972.84C810.27 967.37 808.1 962.13 804.23 958.27 800.37 954.41 795.13 952.24 789.67 952.23H689.14C683.67 952.24 678.44 954.41 674.57 958.27 670.71 962.13 668.54 967.37 668.53 972.84V976.34H810.23Z" fill="#292929" opacity="1" stroke-width="4" stroke="none"></path></g><g><path d="M434.39 366.2L555.48 237.26 676.64 366.39H448Z" fill="#877541" opacity="1" stroke-width="4" stroke="none"></path><path d="M555.51 247.5V129.46" stroke="#1b1a16" stroke-width="4" stroke-linecap="round" stroke-linejoin="round" opacity="1" fill="none"></path><path d="M555.51 399.59V418.09" stroke="#ffc930" stroke-width="4" stroke-linecap="round" stroke-linejoin="round" opacity="1" fill="none"></path><path d="M530.31 393.23L517.26 406.28" stroke="#ffc930" stroke-width="4" stroke-linecap="round" stroke-linejoin="round" opacity="1" fill="none"></path><path d="M580.82 393.23L593.87 406.28" stroke="#ffc930" stroke-width="4" stroke-linecap="round" stroke-linejoin="round" opacity="1" fill="none"></path><path d="M555.51 353.77C537.15 353.77 522.22 338.83 522.22 320.48 522.22 302.13 537.15 287.19 555.51 287.19 573.86 287.19 588.79 302.13 588.79 320.48 588.79 338.83 573.86 353.77 555.51 353.77Z" fill="#f1ead7" opacity="1" stroke-width="4" stroke="none"></path><path d="M675.79 365.56C675.11 365.16 607 325.85 555.51 325.85 504.01 325.85 447.75 361.87 438.64 361.7L555.48 237.26 675.84 365.52 675.79 365.56Z" fill="#ffc930" opacity="1" stroke-width="4" stroke="none"></path><path d="M675.79 365.56C675.46 365.37 641.42 345.69 603.62 334.13L555.48 237.26 675.84 365.52 675.79 365.56Z" fill="#1b1a16" opacity="0.25" stroke-width="4" stroke="none"></path></g><g><path d="M1243.43 808.83L1237.12 814.49C1237.01 814.49 1237.01 814.6 1237.01 814.71L1231.69 831.34C1231.69 831.45 1231.69 831.56 1231.9 831.56L1248.54 831.45C1248.54 831.45 1262.45 825.47 1263.54 824.92V824.82L1251.8 811.55C1251.8 811.55 1251.69 811.44 1251.58 811.44L1243.43 808.83Z" fill="#3f3e3d" opacity="1" stroke-width="4" stroke="none"></path><path d="M1273.76 838.73L1283.33 824.49 1290.94 823.51 1298.54 825.47 1306.15 840.9C1306.15 841.01 1306.15 841.01 1306.05 841.01L1289.96 843.3 1273.87 838.84C1273.65 838.84 1273.65 838.84 1273.76 838.73Z" fill="#939393" opacity="1" stroke-width="4" stroke="none"></path><path d="M1298.44 901.67L1248.86 902.54 1226.25 876.24C1226.14 876.13 1226.25 876.02 1226.36 876.02H1319.42C1319.53 876.02 1319.53 876.13 1319.53 876.24L1298.44 901.67Z" fill="#000000" opacity="1" stroke-width="4" stroke="none"></path><path d="M1287.57 940.7L1263.54 824.82C1263.54 824.71 1263.43 824.71 1263.43 824.71L1231.8 831.23C1231.69 831.23 1231.69 831.34 1231.69 831.34L1255.6 947.33 1287.57 940.7Z" fill="#ffc930" opacity="1" stroke-width="4" stroke="none"></path><path d="M1241.58 800.46L1236.91 814.49C1236.91 814.6 1236.91 814.6 1237.01 814.6L1251.47 811.55C1251.58 811.55 1251.58 811.44 1251.58 811.34L1241.8 800.36C1241.8 800.36 1241.69 800.36 1241.58 800.46Z" fill="#ffc930" opacity="1" stroke-width="4" stroke="none"></path><path d="M1306.05 841.01L1273.76 838.84C1273.65 838.84 1273.65 838.84 1273.65 838.95L1265.93 957.12 1298.44 959.18 1306.15 841.01C1306.15 841.01 1306.15 841.01 1306.05 841.01Z" fill="#3c2c5b" opacity="1" stroke-width="4" stroke="none"></path><path d="M1291.91 811.99L1298.44 825.47 1283.33 824.49 1291.7 811.88C1291.7 811.88 1291.8 811.88 1291.91 811.99Z" fill="#3c2c5b" opacity="1" stroke-width="4" stroke="none"></path><path d="M1272.78 892.22C1255.93 892.33 1239.51 886.67 1226.25 876.13 1226.14 876.02 1226.03 876.13 1226.03 876.24L1232.45 934.72 1242.88 969.84 1302.24 969.29 1313.22 933.85 1319.53 876.24C1319.53 876.13 1319.42 876.13 1319.31 876.13 1306.05 886.67 1289.63 892.33 1272.78 892.22Z" fill="#61ccff" opacity="1" stroke-width="4" stroke="none"></path><path d="M1313.22 933.85C1289.74 914.07 1255.6 914.61 1232.56 934.72V934.83L1237.01 975.82H1308.76L1313.22 933.85Z" fill="#0b4f6f" opacity="1" stroke-width="4" stroke="none"></path></g><g><path d="M1455.6 975.2H143.74L143.74 1021.73H1455.6L1455.6 975.2Z" fill="#cecece" opacity="1" stroke-width="4" stroke="none"></path></g></svg>